<?xml version="1.0" encoding="UTF-8" standalone="no"?>
<!-- Created with Inkscape (http://www.inkscape.org/) -->

<svg
   width="137.00262mm"
   height="48.460957mm"
   viewBox="0 0 137.00262 48.460957"
   version="1.1"
   id="svg1"
   xmlns:inkscape="http://www.inkscape.org/namespaces/inkscape"
   xmlns:sodipodi="http://sodipodi.sourceforge.net/DTD/sodipodi-0.dtd"
   xmlns="http://www.w3.org/2000/svg"
   xmlns:svg="http://www.w3.org/2000/svg">
  <sodipodi:namedview
     id="namedview1"
     pagecolor="#ffffff"
     bordercolor="#666666"
     borderopacity="1.0"
     inkscape:showpageshadow="2"
     inkscape:pageopacity="0.0"
     inkscape:pagecheckerboard="0"
     inkscape:deskcolor="#d1d1d1"
     inkscape:document-units="mm" />
  <defs
     id="defs1" />
  <g
     inkscape:label="Layer 1"
     inkscape:groupmode="layer"
     id="layer1"
     transform="translate(-34.705011,-46.586305)">
    <path
       inkscape:connector-curvature="0"
       style="display:inline;fill:#000000;stroke-width:0.09745"
       d="m 62.431868,54.558219 c -0.593653,0 -0.432161,0.006 -1.239534,0.002 -0.63373,0 -2.40056,0.4299 -2.40056,1.68564 -0.0033,0.22456 0.0033,-0.76227 -0.02254,1.12711 l -1.988954,-0.0523 c -0.792482,-0.0259 -1.445854,-0.0461 -1.723709,-0.0541 -9.1e-5,0 0,1e-5 0,0 -0.03283,-9.1e-4 -0.181287,-0.006 -0.199255,-0.006 -0.15458,-0.004 -0.299324,0.0202 -0.427653,0.0689 -0.08554,0.0325 -0.163655,0.076 -0.23257,0.12908 -0.03447,0.0266 -0.06678,0.0555 -0.09635,0.0869 -0.02953,0.0313 -0.0567,0.0647 -0.08088,0.10049 -0.02437,0.0359 -0.04528,0.074 -0.06365,0.11418 -0.06814,0.14919 -0.133263,0.31794 -0.199254,0.48178 -1.592455,3.95249 -2.546553,12.05095 -2.244731,19.33893 0.22124,5.342 1.034766,10.6521 2.025256,13.21915 0.499369,1.29426 0.743269,1.60114 1.262738,1.58929 0.151382,-0.004 1.020697,-0.0292 1.931856,-0.0576 l 2.041335,-0.0518 0.01431,0.97486 c 0,0.21192 0.04565,0.40749 0.127293,0.58527 0.02893,0.0629 0.06291,0.12352 0.100527,0.18201 0.01217,0.0189 0.02679,0.0362 0.03984,0.0547 0.02711,0.0385 0.05438,0.0767 0.08506,0.11303 0.01614,0.0189 0.03362,0.0369 0.05055,0.0554 0.03206,0.0348 0.0648,0.0689 0.09995,0.10175 0.01857,0.0173 0.03779,0.034 0.0571,0.0506 0.03599,0.0311 0.07321,0.0609 0.11183,0.0898 0.0201,0.0151 0.0405,0.0296 0.06124,0.044 0.04386,0.0306 0.08908,0.06 0.135608,0.0881 0.01644,0.0104 0.03267,0.0195 0.04939,0.0291 0.05414,0.0309 0.109424,0.0606 0.166519,0.0881 0.01128,0.006 0.02192,0.0104 0.03331,0.016 0.06456,0.03 0.130522,0.0576 0.198068,0.0833 0.0071,0.002 0.01371,0.006 0.02071,0.008 0.07512,0.0279 0.151687,0.0527 0.229585,0.0749 0.293812,0.0839 0.603733,0.12863 0.906437,0.12847 14.341355,-0.006 40.78975,-0.016 42.33047,-0.0167 h 0.19328 c 1.55008,6.1e-4 30.60949,0.0115 44.95468,0.0167 1.18021,6.1e-4 2.47313,-0.66242 2.47313,-1.7927 l 0.0142,-0.97484 2.04133,0.0518 c 0.91116,0.0286 1.78048,0.0542 1.93185,0.0576 0.51948,0.0119 0.76338,-0.29504 1.26275,-1.58928 0.99048,-2.56706 1.80401,-7.87716 2.02525,-13.21915 0.31434,-7.59007 -0.73134,-16.0723 -2.44399,-19.82073 -0.14628,-0.32018 -0.48889,-0.50998 -0.90111,-0.49961 -0.17351,0.005 -1.03917,0.0312 -1.92353,0.0601 l -1.98896,0.0523 c -0.0244,-1.8894 -0.0211,-0.90256 -0.0232,-1.12713 0,-1.25572 -1.76688,-1.68563 -2.40056,-1.68563 -0.80736,0.004 -0.6459,-0.002 -1.23953,-0.002 -0.0638,0 -16.5007,0.0937 -43.78235,0.0969 -0.0735,-2e-5 -0.11996,0 -0.19329,0 -27.264717,-0.004 -41.094436,-0.0969 -41.158144,-0.0969 z m 0.195692,0.1951 h 40.96302 0.19329 43.58724 v 20.07467 20.07469 h -43.58724 -0.19329 -40.96302 v -20.07469 z m -1.44832,0.0975 v 0 h 1.056936 v 1.18125 l -1.506608,-1.1301 c 0.151047,-0.03 0.301944,-0.051 0.448484,-0.0512 z m 86.58207,0 h 0.46929 l 2.66108,1.99432 c 3e-4,-0.0334 0,-0.066 0,-0.0993 l -2.52667,-1.89499 h 0.45442 c 0.94043,2.6e-4 2.07761,0.66152 2.07761,1.39596 -0.004,0.20176 -0.004,0.39748 -0.006,0.59836 -0.004,0.40635 -0.007,0.80673 -0.0103,1.21039 -0.004,0.40348 -0.007,0.80792 -0.0103,1.2098 -0.004,0.39338 -0.007,0.79133 -0.0104,1.18422 4e-5,-0.0248 0,-0.0497 0,-0.0743 l -3.09885,-2.32324 v -1.11761 l 3.10898,2.33097 c 2.9e-4,-0.0334 0,-0.067 0,-0.10047 l -3.10898,-2.33037 v -1.11822 l 3.11966,2.3393 c 3.1e-4,-0.0332 0,-0.0662 0,-0.0993 l -3.11966,-2.3399 z m -87.135221,0.0755 1.611274,1.20802 v 1.11582 l -2.541527,-1.90629 c 0.266374,-0.19024 0.592222,-0.33616 0.930253,-0.41755 z m -0.998649,0.4693 2.609923,1.95684 v 1.11524 l -3.123243,-2.34169 c 0.04516,-0.2695 0.242529,-0.52036 0.51332,-0.73039 z m -0.522242,0.82617 3.132165,2.34881 v 1.11522 l -3.125009,-2.34346 c -0.0033,-0.3667 -0.0061,-0.72621 -0.0094,-1.0956 0,-0.008 0.0031,-0.0167 0.0031,-0.0249 z m 0.0081,1.22406 3.123822,2.34227 v 1.11642 l -3.114318,-2.33514 c -0.0033,-0.37395 -0.0061,-0.74772 -0.0094,-1.12356 z m 93.281772,0.0702 v 6e-4 c 0.0244,0.007 -0.0729,0.0242 -0.28015,0.0541 -0.25833,0.0373 -0.50948,0.13133 -0.55851,0.20879 -0.0933,5.89378 -0.10002,8.99105 -0.094,14.00547 0,0.0279 -0.004,0.0285 0.0305,0.0512 0.83366,0.86744 1.98304,2.20669 2.64145,2.93586 0.0331,0.0336 0.0301,0.0359 0.004,0.0648 -0.49097,0.57901 -1.86403,1.92253 -2.63195,2.69142 -0.0312,0.029 -0.0347,0.0428 -0.0381,0.0648 0.008,7.78018 0.0413,14.30452 0.10405,14.3433 0.059,0.0365 0.3331,0.0993 0.60907,0.13979 l 0.50198,0.0737 -0.7048,0.0115 c -0.65487,0.0115 -0.70862,-0.004 -0.75777,-0.20699 -0.0268,-0.10992 -0.0359,-6.13186 -0.0268,-14.4129 0,-0.0369 0.009,-0.0596 0.0399,-0.0815 0.75003,-0.8173 1.75629,-1.89749 2.3744,-2.53617 l 0.007,-0.007 c 0.0717,-0.0607 0.0692,-0.1726 -0.007,-0.22899 -0.64396,-0.76564 -1.6921,-1.98809 -2.37915,-2.73662 -0.0327,-0.0246 -0.0259,-0.0341 -0.0315,-0.0607 0.005,-5.10413 0.0149,-9.2511 0.0226,-14.35936 l 0.68224,-0.0142 c 0.3055,-0.007 0.46329,-0.008 0.49306,-6.1e-4 z m -94.791943,6e-4 c 0.02985,-0.007 0.18759,-0.006 0.493097,6.1e-4 l 0.682211,0.0137 c 0.008,5.10825 0.01797,9.25524 0.02253,14.35937 -0.0058,0.0266 0,0.0367 -0.03151,0.0613 -0.687054,0.74854 -1.73519,1.97099 -2.37915,2.73662 -0.0762,0.0564 -0.07908,0.16833 -0.0071,0.22899 l 0.0071,0.007 c 0.618106,0.63868 1.624369,1.71888 2.374399,2.53618 0.0306,0.0219 0.03983,0.0446 0.03983,0.0815 0.0091,8.28103 1.21e-4,14.30297 -0.02679,14.41289 -0.04915,0.20353 -0.102932,0.2185 -0.757734,0.207 l -0.704838,-0.012 0.11183,-0.0167 0.390166,-0.0571 c 0.1378,-0.0201 0.275114,-0.046 0.385445,-0.0714 0.110367,-0.0253 0.194108,-0.0501 0.223617,-0.0683 0.01036,-0.007 0.01918,-0.24211 0.02802,-0.57338 0.04452,-1.69152 0.0695,-7.26389 0.07614,-13.76993 -0.0033,-0.022 -0.0071,-0.0358 -0.03806,-0.0648 -0.767907,-0.76893 -2.141008,-2.11241 -2.631913,-2.69142 -0.02679,-0.0289 -0.03064,-0.0312 0.0029,-0.0648 0.658396,-0.72918 1.807789,-2.06844 2.641444,-2.93588 0.03395,-0.0227 0.03094,-0.0233 0.03094,-0.0511 0.0058,-5.01443 6e-5,-8.11169 -0.09398,-14.00547 -0.04903,-0.0775 -0.300178,-0.17147 -0.558511,-0.20877 -0.207142,-0.0299 -0.304531,-0.0472 -0.280139,-0.0541 z m -2.816916,0.0768 v 0 c 0.2016,-0.002 0.550684,0.039 1.231798,0.12134 0.02405,0.004 0.03118,0.005 0.0553,0.007 l -2.382709,1.78615 c -0.0134,0.0429 -0.02679,0.0882 -0.04045,0.13204 l 2.537357,-1.90391 c 2.74e-4,2e-5 0,-3e-5 0,0 0.554185,0.0678 0.988781,0.12382 1.273427,0.16238 l -4.203354,3.15177 c -0.01036,0.0418 -0.02132,0.0834 -0.03151,0.12551 l 4.350262,-3.26241 c 0.03734,0.006 0.177542,0.0221 0.200442,0.0255 l 0.365195,0.0554 v 0.61263 l -5.210319,3.90657 c -0.008,0.039 -0.01491,0.079 -0.02253,0.11836 l 5.232916,-3.925 v 1.11701 l -5.466095,4.09927 c -0.0071,0.039 -0.0134,0.0781 -0.01949,0.11718 l 5.485706,-4.11414 v 1.11581 l -5.676648,4.25749 c -0.0046,0.038 -0.01157,0.0755 -0.01614,0.1136 l 5.692695,-4.26938 v 1.117 l -5.848524,4.38597 c -0.0046,0.0368 -0.0091,0.073 -0.0131,0.11004 l 5.86162,-4.39489 v 1.11701 l -5.987118,4.49065 c -0.0033,0.036 -0.0067,0.0716 -0.01001,0.10761 l 5.997228,-4.49719 v 1.11701 l -6.097753,4.57213 c -0.0033,0.0362 -0.0061,0.0718 -0.0081,0.10831 l 6.106066,-4.57808 v 1.11582 l -6.1822,4.63518 c -0.0033,0.0358 -0.0048,0.0713 -0.0073,0.10704 l 6.189357,-4.64173 v 1.11821 l -6.243471,4.68098 c 0,0.0351 -0.0037,0.0701 -0.0048,0.10531 l 6.248222,-4.68633 v 1.11819 l -6.282727,4.71073 c 0,0.0346 -0.0037,0.0689 -0.0037,0.10348 l 6.28629,-4.7143 v 1.11701 l -6.301761,4.72679 c -2.42e-4,0.0341 0,0.0681 0,0.10232 l 6.301761,-4.72737 v 1.11641 l -6.301761,4.72677 c 1.53e-4,0.0185 3.1e-5,0.0368 0,0.0554 -0.0074,-0.80171 -0.0029,-1.60339 0.01553,-2.40295 0.01857,-0.84188 0.05074,-1.67955 0.09694,-2.50881 0.07634,-1.36983 0.190698,-2.71315 0.340832,-4.01065 0.180678,-1.56153 0.411421,-3.05696 0.696493,-4.4383 0.416691,-2.01916 1.095765,-4.11517 1.450087,-4.47519 1.21e-4,-1.2e-4 0,1.2e-4 0,0 -0.04215,0.0428 -0.08896,0.11176 -0.139201,0.20044 l 0.449671,-0.33724 c -0.03908,0.002 -0.0733,0.006 -0.102899,0.0103 -0.02954,0.006 -0.05463,0.0127 -0.07614,0.0226 2.13e-4,-1e-4 0,-6.1e-4 0,-6.1e-4 0.02162,-0.009 0.04708,-0.0162 0.07555,-0.022 0.02832,-0.006 0.06404,-0.009 0.102899,-0.0103 0.01217,-6.1e-4 0.02041,-0.002 0.0339,-0.004 z m 100.424579,0 c 0.11998,9.9e-4 0.18616,0.0202 0.24028,0.0529 0.0228,0.0138 0.0452,0.0305 0.0661,0.05 -0.0211,-0.0194 -0.0433,-0.0362 -0.0661,-0.05 l -3.59725,2.69737 v -2.34942 l 0.3652,-0.0554 c 0.20097,-0.0305 0.99286,-0.13146 1.75936,-0.22424 0.68158,-0.0824 1.03087,-0.12362 1.23241,-0.12132 z m 0.3081,0.10405 c 0.0126,0.0115 0.0241,0.0221 0.0375,0.0356 0.10634,0.10808 0.2435,0.38631 0.39254,0.75837 l -4.0951,3.07028 v -1.11462 z m -7.75783,0.45502 3.09886,2.32324 c -0.004,0.39626 -0.007,0.79747 -0.0103,1.19433 1.8e-4,-0.028 2.4e-4,-0.0561 0,-0.0839 l -3.08812,-2.31551 z m 8.2188,0.41755 c 0.10002,0.25654 0.20421,0.54999 0.31046,0.88384 l -4.4365,3.32666 v -1.11523 z m -96.856452,0.10174 v 0 l 3.113101,2.33514 v 12.07836 l -3.029837,-2.2727 c 0,-0.38738 -0.0048,-0.73876 -0.0065,-1.11939 l 3.035813,2.27745 v -0.10348 l -3.035809,-2.27744 c 1.22e-4,0.0271 3.1e-5,0.0532 0,0.0797 -0.0029,-0.40776 -0.0046,-0.79875 -0.0067,-1.19968 -0.0029,-0.40847 -0.0042,-0.81995 -0.0067,-1.22229 l 3.048907,2.28637 v -0.1029 l -3.049485,-2.28696 c -0.0031,-0.36861 -0.0039,-0.75685 -0.0067,-1.12118 l 3.056033,2.29291 v -0.1029 l -3.056036,-2.29232 c -0.0031,-0.36299 -0.0039,-0.75866 -0.0065,-1.11819 l 3.06258,2.29588 v -0.10347 l -3.063154,-2.29707 c -0.0031,-0.36495 -0.0042,-0.75716 -0.0073,-1.11939 l 3.070316,2.30183 v -0.10232 l -3.070895,-2.30421 c -0.0031,-0.3755 -0.0071,-0.74826 -0.01001,-1.12177 l 3.080395,2.30956 v -0.10232 l -3.081006,-2.31195 c -0.0029,-0.37338 -0.0071,-0.74941 -0.01001,-1.12178 l 3.091115,2.31849 v -0.10347 l -3.091696,-2.31967 c -0.0033,-0.37233 -0.0067,-0.7495 -0.01001,-1.12178 l 3.101806,2.32682 v -0.10405 l -3.102415,-2.32801 c -0.0033,-0.37231 -0.0067,-0.74853 -0.01001,-1.12176 z m 0.07078,9.79794 3.04236,2.2822 v -0.10233 l -3.042356,-2.28221 c 1.82e-4,0.0342 0,0.0681 0,0.10233 z m 88.566882,-9.09906 3.08815,2.3155 c -0.004,0.40004 -0.007,0.80211 -0.0103,1.20385 2e-4,-0.0313 2.7e-4,-0.0626 0,-0.094 l -3.07745,-2.30837 z m 8.55485,0.16594 c 0.0901,0.28694 0.17921,0.59364 0.26704,0.91538 l -4.72913,3.54672 v -1.11464 z m 0.29024,0.99925 c 0.0824,0.30562 0.16283,0.6184 0.23794,0.93857 l -4.99027,3.743 v -1.11583 z m -8.84509,0.0535 3.07745,2.30777 c -0.004,0.40074 -0.007,0.80688 -0.0104,1.21039 -0.004,0.38784 -0.004,0.8208 -0.007,1.21218 -0.004,0.39196 -0.004,0.81747 -0.007,1.21397 -0.004,0.39629 -0.005,0.81159 -0.007,1.21336 -0.004,0.40158 -0.005,0.80476 -0.007,1.21277 -0.004,0.40822 -0.005,0.79775 -0.007,1.21337 -0.004,0.41583 -0.005,0.78976 -0.007,1.21396 0,0.19765 -0.004,0.36602 -0.004,0.56565 0,0.0319 0.006,0.0307 0.0262,0.0541 0.25487,0.22076 0.85513,0.91012 1.45251,1.60295 l -4.50318,-3.37722 v -1.11581 l 3.0275,2.2703 c 1e-4,-0.0353 0,-0.0659 0,-0.10117 l -3.0275,-2.2703 v -1.11821 l 3.03402,2.27567 c 1.5e-4,-0.0347 0,-0.0666 0,-0.10117 l -3.03402,-2.27567 v -1.11701 l 3.04057,2.28041 c 1.8e-4,-0.0339 0,-0.0668 0,-0.10048 l -3.04057,-2.28041 v -1.11701 l 3.04711,2.28517 c 1.8e-4,-0.0335 0,-0.0676 0,-0.10106 l -3.04718,-2.28576 v -1.11583 l 3.05423,2.28935 c 2.2e-4,-0.0327 0,-0.0674 0,-0.0999 l -3.05423,-2.29053 v -1.1176 l 3.06078,2.29409 c 2.1e-4,-0.0322 0,-0.0676 0,-0.0999 l -3.06078,-2.29587 v -1.11642 l 3.06733,2.30004 c 2.4e-4,-0.0323 0,-0.0687 0,-0.10105 l -3.06733,-2.30065 z m 9.10206,0.97247 c 0.0498,0.21506 0.0989,0.431 0.14333,0.64654 0.0213,0.10347 0.04,0.21231 0.0607,0.31702 l -5.21329,3.91013 v -1.11582 z m 0.22124,1.05218 c 0.0632,0.32194 0.12432,0.64752 0.18202,0.98021 l -5.41256,4.06002 v -1.11761 z m 0.19749,1.07063 c 0.0562,0.32776 0.11084,0.65796 0.16176,0.99508 l -5.58979,4.19086 v -1.11463 z m 0.17486,1.08725 c 0.0497,0.33296 0.0983,0.66775 0.14273,1.00878 l -5.74562,4.30804 v -1.11463 z m 0.15404,1.10156 c 0.0436,0.33814 0.084,0.68033 0.12254,1.02541 l -5.87947,4.40857 v -1.11522 z m 0.13383,1.1176 c 0.0378,0.34299 0.0714,0.69079 0.10405,1.03969 l -5.57018,4.1766 -0.40686,-0.45204 c -0.0155,-0.0177 -0.0186,-0.0187 -0.0176,-0.0447 v -0.29978 z m 0.11302,1.13367 c 0.032,0.34735 0.0604,0.69813 0.0875,1.05039 l -5.01228,3.75966 -0.59896,-0.66557 z m 0.0952,1.14615 c 0.0265,0.35228 0.05,0.70663 0.0714,1.0629 l -4.43759,3.32842 -0.59896,-0.66617 z m -10.19111,1.06349 4.75711,3.56812 c 0.26737,0.31014 0.57017,0.66383 0.75121,0.86542 0.0446,0.0316 0.0506,0.0447 0.005,0.078 -0.057,0.0696 -0.21591,0.23972 -0.40328,0.43776 l -5.10983,-3.83281 z m 10.26843,0.0975 c 0.0211,0.35682 0.0394,0.7149 0.0553,1.0748 l -3.8441,2.88352 -0.59956,-0.66617 z m -99.886902,0.4568 v 0.82201 c 2.42e-4,0.0259 -0.0033,0.0269 -0.01736,0.0447 l -0.727434,0.80891 -5.538056,4.154 c 0,0.0323 0.0037,0.0646 0.0037,0.0969 l 5.255541,-3.94047 -1.630308,1.81291 c -0.07516,0.0562 -0.07954,0.16822 -0.0071,0.229 l 0.0071,0.007 0.162376,0.16892 -3.753715,2.81572 c 0,0.032 0.0037,0.0638 0.0048,0.0957 l 3.805455,-2.85261 0.623924,0.64771 -4.377639,3.28323 c 0.0033,0.0325 0.0037,0.0645 0.0061,0.0969 l 4.428799,-3.3207 0.623924,0.64832 -4.98195,3.73526 c 0.0033,0.0323 0.0048,0.0652 0.0073,0.0975 L 57.07,76.565079 v 0 l 0.624533,0.6495 -5.567808,4.17482 c 0.0033,0.0315 0.0061,0.0636 0.0081,0.0951 l 5.615405,-4.21168 0.349725,0.36282 c 0.03073,0.0247 0.04225,0.0549 0.04225,0.0797 -6.1e-5,0.15517 0,0.22876 0,0.38067 l -5.900295,4.42522 c 0.0033,0.0313 0.0067,0.0628 0.01001,0.0939 l 5.890185,-4.4175 c -1.52e-4,0.44322 0,0.70123 0,1.11702 l -5.762892,4.32292 c -0.02711,-0.21005 -0.0585,-0.4102 -0.08387,-0.62395 -0.280261,-2.36066 -0.42738,-4.87454 -0.452046,-7.40035 z m 1.064093,0.028 3.029844,2.2721 v 1.11582 l -3.056034,-2.29231 c 0,-9.9e-4 0.0039,-0.005 0.0055,-0.006 0.02041,-0.0234 0.02679,-0.0222 0.02679,-0.0541 0,-0.36568 -0.0046,-0.67694 -0.0061,-1.03613 z m 88.554379,0.63583 5.05394,3.79058 c 0.0228,-0.0241 0.0319,-0.0343 0.0518,-0.0554 -0.0216,0.0228 -0.0289,0.0313 -0.0518,0.0554 -0.17989,0.1893 -0.4018,0.4195 -0.62396,0.64892 l -4.42998,-3.32249 z m 10.32791,0.0535 c 0.0167,0.39397 0.0308,0.78891 0.0416,1.18542 0,-0.0329 6e-5,-0.0659 -0.004,-0.0988 l -5.29661,3.97259 1.6767,-1.74155 0.007,-0.007 c 0.0722,-0.0608 0.0687,-0.17283 -0.007,-0.22899 l -0.21294,-0.23674 z m -98.968532,0.46452 3.116087,2.33634 v 0.42111 0.69411 l -3.728134,-2.79609 c 0.250112,-0.28119 0.471414,-0.52282 0.612047,-0.65547 z m 88.640622,0.70007 4.37349,3.27967 c -0.26391,0.27221 -0.39802,0.40719 -0.63108,0.64474 l -3.74241,-2.80739 z m -89.307393,0.0173 3.782858,2.83655 v 1.11523 l -4.373467,-3.27967 c 0.214421,-0.24822 0.394216,-0.45038 0.590609,-0.67211 z m 99.676923,0.005 c 0.0103,0.36636 0.0186,0.73274 0.0232,1.10037 l -6.29819,4.72142 c -1.8e-4,-0.34808 0,-0.53204 0,-0.89812 0,-0.0248 0.0115,-0.055 0.0422,-0.0798 l 0.58347,-0.6061 z m -100.322257,0.73101 4.428192,3.32009 v 1.11464 l -5.014048,-3.75963 c 0.19289,-0.22267 0.368361,-0.42307 0.585856,-0.67508 z m 89.952727,0.46512 3.68592,2.76398 c -0.22983,0.234 -0.5357,0.54881 -0.63108,0.64356 l -3.05484,-2.29051 v -0.27718 z m 10.39334,0.005 c 0.009,0.78031 0.008,1.56214 -0.007,2.34168 l -6.2887,4.71428 c 4e-5,0.0346 -2e-5,0.0686 0,0.1029 l 6.28694,-4.71667 c -0.0167,0.80543 -0.048,1.60714 -0.0905,2.40235 l -6.1942,4.64594 c 0,-0.31964 0,-0.77008 0,-1.11404 0,-0.75164 -0.004,-1.56069 -0.004,-2.43446 l 6.30237,-4.72857 c 1.4e-4,-0.034 0,-0.0678 0,-0.10175 l -6.30237,4.72619 c -3.1e-4,-0.40211 0,-0.68446 0,-1.11344 z m -6.29465,8.37639 6.24886,-4.68812 c 0,-0.0348 0.004,-0.0699 0.004,-0.10462 l -6.25181,4.6893 c 5e-5,0.0322 -4e-5,0.0716 0,0.10348 z m -94.69081,-8.10928 5.067585,3.80069 v 1.11582 l -4.904631,-3.67757 c -0.288755,-0.302 -0.531986,-0.55968 -0.608453,-0.65308 -0.0458,-0.0333 -0.04026,-0.0462 0.0048,-0.078 0.106282,-0.11831 0.298777,-0.3444 0.440748,-0.50794 z m 90.59212,0.9469 2.99476,2.24591 c -0.009,0.012 -0.0136,0.0288 -0.0136,0.0749 -0.006,0.3694 -0.006,0.737 -0.008,1.10512 4e-5,-0.0266 0,-0.0532 0,-0.0797 l -2.97278,-2.22926 z m -90.078224,0.65665 4.553689,3.41527 v 2.33276 l -2.966806,-2.22511 c -1.53e-4,-0.37259 -0.0055,-0.74655 -0.0088,-1.11999 l 2.974541,2.23105 v -0.10405 l -2.975123,-2.23223 c -0.0031,-0.21128 0,-0.42172 -0.0048,-0.63346 0,-0.0779 -0.0046,-0.0729 -0.04282,-0.10048 -0.203858,-0.20171 -0.910583,-0.92257 -1.529788,-1.56369 z m 90.078224,0.56147 2.97278,2.22866 c -0.004,0.37139 -0.005,0.74329 -0.005,1.11405 l -2.9674,-2.2257 v 0.10048 l 2.96857,2.22749 c 0,0.37376 0.004,0.74727 0.007,1.12117 l -2.97572,-2.23164 v 0.10175 l 2.9763,2.23282 c 0.005,0.40437 0.0128,0.81447 0.0189,1.21991 -2e-5,-0.03 7e-5,-0.0604 -0.004,-0.0903 l -2.99309,-2.24472 z m 10.28865,2.51833 c -0.0458,0.83415 -0.10681,1.65863 -0.18141,2.47075 -0.0408,0.44443 -0.0854,0.88446 -0.13503,1.31984 l -5.85983,4.39548 c -0.004,-0.35494 -0.004,-0.70251 -0.006,-1.11344 l 5.99072,-4.49303 c 0.004,-0.036 0.006,-0.0728 0.009,-0.10888 l -6.00082,4.50075 c 0,-0.41618 -0.004,-0.63746 -0.005,-1.11343 l 6.10429,-4.5781 c 0.004,-0.0355 0.005,-0.0715 0.007,-0.10704 l -6.11208,4.58463 c 0,-0.29413 0,-0.79703 0,-1.11463 z m -99.909498,0.47345 c -2.43e-4,0.41378 0,0.73104 0,1.11821 l -5.613,4.20931 c 0.0046,0.0294 0.0081,0.0615 0.01249,0.091 l 5.600514,-4.19919 c 0,0.38479 0,0.75914 -0.0029,1.1182 l -5.433388,4.07549 c 0.0046,0.0293 0.0091,0.0594 0.01493,0.0887 l 5.418526,-4.0624 c 0,0.35676 0,0.78631 0,1.1182 l -5.240101,3.92977 c 0.0058,0.0298 0.01217,0.0572 0.01797,0.0868 l 5.222258,-3.9155 c 0,0.32951 0,0.81207 0,1.1176 l -5.024768,3.76739 c 0.0058,0.0281 0.01156,0.0608 0.01767,0.0887 l 5.006952,-3.75549 c 0,0.42649 -0.0029,0.7394 -0.0042,1.12057 l -4.777336,3.58182 c -0.363124,-1.42613 -0.701001,-3.25677 -0.964146,-5.26566 z m 1.129507,0.006 c 0,0.0227 0,0.0453 0,0.0678 l 2.966806,2.22511 v 1.11458 l -2.973932,-2.22986 c 0.0031,-0.39249 0.0073,-0.78505 0.0071,-1.17768 z m 88.491341,0.65843 2.99655,2.24593 c 0.007,0.40866 0.014,0.82055 0.0219,1.23121 0,-0.0332 -2.4e-4,-0.0663 -0.004,-0.0993 l -3.01495,-2.26144 z m -88.498467,0.53527 c -1.22e-4,0.0292 0,0.0582 0,0.0875 l 2.973932,2.22926 v 9.64211 l -3.147607,-2.35952 c 0.0052,-0.36796 0.0098,-0.73843 0.01614,-1.10156 l 3.129761,2.34764 v -0.10405 l -3.12795,-2.34774 c 0.0067,-0.37278 0.01553,-0.72848 0.02315,-1.09679 l 3.105398,2.32919 v -0.10405 l -3.103022,-2.32859 c 0.0076,-0.36751 0.01523,-0.7319 0.02315,-1.0956 l 3.079817,2.31015 v -0.1029 l -3.077441,-2.30837 c 0.0081,-0.36435 0.01492,-0.73742 0.02315,-1.09857 l 3.054236,2.29112 v -0.10289 l -3.051861,-2.28934 c 0,0.007 0,0.0146 0,0.022 0.0085,-0.37572 0.0134,-0.74881 0.02131,-1.12177 l 3.030421,2.27388 v -0.10347 l -3.028656,-2.2727 c 0.0076,-0.36733 0.01278,-0.73202 0.01949,-1.09737 l 3.009013,2.25603 v -0.10232 l -3.007246,-2.25663 c 0.0067,-0.36579 0.01523,-0.73469 0.0201,-1.09917 l 2.986996,2.23997 v -0.10232 l -2.985229,-2.24056 c 0.0055,-0.39719 0.01001,-0.79667 0.0131,-1.19315 z m 88.498467,0.68222 3.01857,2.26258 c 0.008,0.41204 0.0128,0.8204 0.0219,1.23536 0.009,0.40677 0.0161,0.82437 0.0255,1.23478 -1.5e-4,-0.0331 -0.004,-0.0669 -0.004,-0.0999 l -3.06258,-2.29708 v -1.11701 l 3.04056,2.27923 c 0,-0.0345 -1.2e-4,-0.068 -0.004,-0.10233 l -3.03699,-2.27743 z m 9.96033,1.54645 c -0.007,0.056 -0.0119,0.1136 -0.0186,0.16951 -0.10106,0.85151 -0.22129,1.65908 -0.34792,2.44042 l -5.46315,4.0963 c 0,0.0405 -6e-5,0.0627 0.004,0.10175 l 5.44117,-4.08203 c -0.0727,0.44248 -0.14669,0.87391 -0.22544,1.28534 l -5.19782,3.89705 c 0,0.0245 -9e-5,0.0792 0.004,0.10232 l 5.17047,-3.87921 c -0.0892,0.45907 -0.17966,0.90902 -0.27415,1.32044 l -4.56383,3.4236 c -0.046,-0.005 -0.26182,-0.0327 -0.27302,-0.0327 -0.0265,-3e-5 -0.0459,-0.34211 -0.0623,-0.93441 -0.008,-0.28652 -0.0146,-0.72306 -0.0207,-1.20207 -0.005,-0.33472 -0.009,-0.66361 -0.0126,-1.1069 l 5.66416,-4.24916 c 0.006,-0.0372 0.009,-0.0752 0.0149,-0.11245 l -5.67962,4.25927 c -0.004,-0.2973 -0.004,-0.76178 -0.006,-1.11107 z m -9.96033,0.8898 3.06614,2.29886 c 0.009,0.40166 0.0174,0.81096 0.0262,1.21693 0,-0.0275 -0.004,-0.0552 -0.004,-0.0827 l -3.08935,-2.31671 z m 0,1.21693 3.09291,2.31909 c 0.009,0.41318 0.018,0.81984 0.0262,1.23834 0.007,0.37588 0.014,0.75048 0.0201,1.13129 l -3.13807,-2.35299 v 0.10117 l 3.13928,2.35537 c 0.006,0.3749 0.0126,0.74859 0.0167,1.1289 l -3.15712,-2.36785 v -2.33454 l 3.11906,2.33871 c 0,-0.0348 -0.004,-0.0681 -0.004,-0.1029 l -3.11551,-2.33632 z m -89.630349,0.56327 c 0,0.44055 -0.0037,0.73963 -0.0055,1.12177 l -4.492417,3.36888 c 0.0091,0.0288 0.01736,0.0533 0.02618,0.0815 l 4.465679,-3.34924 c -0.0029,0.37666 -0.0033,0.79835 -0.0055,1.12057 l -4.152225,3.11432 c -0.197159,-0.49134 -0.396993,-1.13664 -0.591802,-1.89142 z m -0.01188,2.44517 c -0.0029,0.34857 -0.0039,0.83572 -0.0067,1.12355 l -3.681145,2.76042 c 0.01675,0.0209 0.03353,0.0461 0.04997,0.0642 l 3.629405,-2.72354 c -0.0052,0.51314 -0.01217,0.80062 -0.01888,1.13248 l -2.159097,1.61961 v 6.1e-4 c -0.523003,0.0651 -1.12022,0.13973 -1.164012,0.13978 -0.232996,1.8e-4 -0.497086,-0.37455 -0.767875,-1.0278 z m 98.664599,0.46036 c -0.11831,0.50612 -0.2398,0.97082 -0.36221,1.38764 l -2.77115,2.07939 c -0.0219,-0.002 -0.0207,-0.002 -0.0428,-0.006 -0.63186,-0.0814 -0.97221,-0.1192 -1.24132,-0.14809 z m -9.02235,0.18618 3.15833,2.36903 c 0.004,0.36849 0.006,0.74645 0.007,1.12059 l -3.16548,-2.37321 z m 0,1.21871 3.16606,2.3744 c 0.004,0.3079 0.005,0.61045 0.005,0.92251 0,0.0616 -0.007,0.12331 -0.0161,0.18498 l -3.15476,-2.36606 z m 8.62207,0.11361 c -0.20227,0.67088 -0.4056,1.20102 -0.60255,1.56846 v 0 l -0.73041,0.54838 c -0.15945,-0.0147 -0.64521,-0.0735 -1.28174,-0.15465 z m -97.294203,0.2855 v 0.0934 l 3.147606,2.36011 v 1.11702 l -3.161309,-2.37143 c 0.0037,-0.40347 0.0081,-0.80189 0.01371,-1.19909 z m -0.999259,0.19449 c -0.01736,0.78925 -0.03832,1.26865 -0.0684,1.26869 -0.067,6e-5 -0.801314,0.0875 -1.632106,0.19449 -0.152357,0.0197 -0.155312,0.0178 -0.297376,0.0357 z m 89.671392,0.62334 3.13753,2.35299 c -0.0633,0.2774 -0.22021,0.54733 -0.4568,0.77619 l -2.68073,-2.01097 z m 8.01121,0.48 c -0.0293,0.0539 -0.0586,0.11199 -0.0875,0.15821 0.0289,-0.0464 0.0582,-0.10324 0.0875,-0.15821 z m -96.697625,0.005 3.161888,2.37022 v 0.90884 h -0.274694 l -2.893658,-2.16964 c 0,-0.37276 0.0033,-0.74287 0.0067,-1.10987 z m 96.609005,0.15583 c -0.15954,0.25534 -0.3129,0.39504 -0.45503,0.39494 -0.004,0 -0.0575,-0.008 -0.0618,-0.008 z m -7.92259,0.57873 2.62064,1.96517 c -0.22745,0.20227 -0.51944,0.36691 -0.86482,0.4681 l -1.75582,-1.31683 z m -88.692964,0.47823 2.755066,2.06629 h -0.554339 c -1.338445,0 -2.203101,-0.86254 -2.203101,-1.68325 0,-0.12957 0.0031,-0.2542 0.0031,-0.38304 z m 88.692964,0.73993 1.65769,1.2431 c 0.0298,-0.007 0.058,-0.0164 0.0869,-0.0249 -0.0289,0.008 -0.057,0.0175 -0.0869,0.0249 -0.21239,0.0532 -0.44279,0.0832 -0.68995,0.0832 h -0.96774 z"
       id="path2483" />
    <text
       xml:space="preserve"
       style="font-style:normal;font-weight:normal;font-size:4.23333px;line-height:100%;font-family:sans-serif;letter-spacing:0px;word-spacing:0px;fill:#000000;fill-opacity:1;stroke:none;stroke-width:0.264583px;stroke-linecap:butt;stroke-linejoin:miter;stroke-opacity:1"
       x="143.48128"
       y="50.167"
       id="text4610-64-9"><tspan
         sodipodi:role="line"
         id="tspan4608-4-4"
         x="143.48128"
         y="50.167"
         style="font-style:normal;font-variant:normal;font-weight:normal;font-stretch:normal;font-size:4.93889px;font-family:sans-serif;-inkscape-font-specification:'sans-serif, Normal';font-variant-ligatures:normal;font-variant-caps:normal;font-variant-numeric:normal;font-feature-settings:normal;text-align:start;writing-mode:lr-tb;text-anchor:start;stroke-width:0.264583px">101</tspan></text>
    <text
       xml:space="preserve"
       style="font-style:normal;font-weight:normal;font-size:4.23333px;line-height:100%;font-family:sans-serif;letter-spacing:0px;word-spacing:0px;fill:#000000;fill-opacity:1;stroke:none;stroke-width:0.264583px;stroke-linecap:butt;stroke-linejoin:miter;stroke-opacity:1"
       x="34.26545"
       y="71.333672"
       id="text4610-6-9-3"><tspan
         sodipodi:role="line"
         x="34.26545"
         y="71.333672"
         style="font-style:normal;font-variant:normal;font-weight:normal;font-stretch:normal;font-size:4.93889px;font-family:sans-serif;-inkscape-font-specification:'sans-serif, Normal';font-variant-ligatures:normal;font-variant-caps:normal;font-variant-numeric:normal;font-feature-settings:normal;text-align:start;writing-mode:lr-tb;text-anchor:start;stroke-width:0.264583px"
         id="tspan4630-4-5">102</tspan></text>
    <path
       style="fill:none;fill-rule:evenodd;stroke:#000000;stroke-width:0.264583px;stroke-linecap:butt;stroke-linejoin:miter;stroke-opacity:1"
       d="m 43.730083,69.346859 10.016368,-0.94494"
       id="path4716"
       inkscape:connector-curvature="0" />
    <path
       style="fill:none;fill-rule:evenodd;stroke:#000000;stroke-width:0.264583px;stroke-linecap:butt;stroke-linejoin:miter;stroke-opacity:1"
       d="m 143.23231,50.637039 -5.38616,6.4256"
       id="path4718"
       inkscape:connector-curvature="0"
       sodipodi:nodetypes="cc" />
    <text
       xml:space="preserve"
       style="font-style:normal;font-weight:normal;font-size:4.23333px;line-height:100%;font-family:sans-serif;letter-spacing:0px;word-spacing:0px;fill:#000000;fill-opacity:1;stroke:none;stroke-width:0.264583px;stroke-linecap:butt;stroke-linejoin:miter;stroke-opacity:1"
       x="163.51401"
       y="69.254799"
       id="text4610-64-9-6"><tspan
         sodipodi:role="line"
         id="tspan4608-4-4-3"
         x="163.51401"
         y="69.254799"
         style="font-style:normal;font-variant:normal;font-weight:normal;font-stretch:normal;font-size:4.93889px;font-family:sans-serif;-inkscape-font-specification:'sans-serif, Normal';font-variant-ligatures:normal;font-variant-caps:normal;font-variant-numeric:normal;font-feature-settings:normal;text-align:start;writing-mode:lr-tb;text-anchor:start;stroke-width:0.264583px">103</tspan></text>
    <text
       xml:space="preserve"
       style="font-style:normal;font-weight:normal;font-size:4.23333px;line-height:100%;font-family:sans-serif;letter-spacing:0px;word-spacing:0px;fill:#000000;fill-opacity:1;stroke:none;stroke-width:0.264583px;stroke-linecap:butt;stroke-linejoin:miter;stroke-opacity:1"
       x="34.548931"
       y="78.798698"
       id="text4610-6-9-3-1"><tspan
         sodipodi:role="line"
         x="34.548931"
         y="78.798698"
         style="font-style:normal;font-variant:normal;font-weight:normal;font-stretch:normal;font-size:4.93889px;font-family:sans-serif;-inkscape-font-specification:'sans-serif, Normal';font-variant-ligatures:normal;font-variant-caps:normal;font-variant-numeric:normal;font-feature-settings:normal;text-align:start;writing-mode:lr-tb;text-anchor:start;stroke-width:0.264583px"
         id="tspan4630-4-5-3">104</tspan></text>
    <path
       style="fill:none;fill-rule:evenodd;stroke:#000000;stroke-width:0.264583px;stroke-linecap:butt;stroke-linejoin:miter;stroke-opacity:1"
       d="m 44.486034,77.189869 11.797599,-2.08927"
       id="path4756"
       inkscape:connector-curvature="0" />
    <path
       style="fill:none;fill-rule:evenodd;stroke:#000000;stroke-width:0.264583px;stroke-linecap:butt;stroke-linejoin:miter;stroke-opacity:1"
       d="m 163.4253,67.583639 -10.95805,7.08265"
       id="path4758"
       inkscape:connector-curvature="0" />
  </g>
</svg>
